<?xml version="1.0" encoding="UTF-8"?>
<svg id="_レイヤー_2" data-name="レイヤー 2" xmlns="http://www.w3.org/2000/svg" viewBox="0 0 214.61 21.96">
  <defs>
    <style>
      .cls-1 {
        fill: #ededed;
      }
    </style>
  </defs>
  <g id="_レイヤー_1-2" data-name="レイヤー 1">
    <g>
      <path class="cls-1" d="M0,1.97h4.08l1.87,6.72,1.87-6.72h4.03v15.12h-3.38v-7.25l.29-2.74-.07-.02-1.37,4.75h-2.71l-1.44-4.75-.07.02.29,2.28v7.7H0V1.97Z"/>
      <path class="cls-1" d="M21.91,16.13c-.74.7-2.33,1.37-3.86,1.37-2.81,0-4.3-1.46-4.3-3.53,0-2.62,2.42-3.65,5.33-3.65h1.82v-.26c0-.86-.6-1.61-2.38-1.61-1.08,0-2.38.34-3.19.7h-.48v-2.81c.84-.34,2.42-.79,4.3-.79,4.1,0,5.35,2.16,5.35,5.52v6.05h-1.97l-.62-.98ZM20.9,13.95v-1.39h-2.02c-1.06,0-1.7.31-1.7,1.06,0,.67.55,1.06,1.51,1.06.67,0,1.58-.31,2.21-.72Z"/>
      <path class="cls-1" d="M34.51,17.09v-6.53c0-1.15-.24-1.7-1.32-1.7-.82,0-1.58.31-2.09.53v7.7h-3.7V6.05h1.73l.58.91c.77-.6,2.47-1.42,4.1-1.42,3.55,0,4.39,2.45,4.39,5.14v6.41h-3.7Z"/>
      <path class="cls-1" d="M47.95,16.85v-1.06c-.38.43-1.15.94-2.47.94-2.57,0-5.06-1.73-5.06-5.4s2.42-5.78,5.3-5.78c1.46,0,2.69.58,3.72,1.32l.65-.82h1.56v10.51c0,3.22-1.92,5.4-5.62,5.4-1.66,0-3.77-.46-4.85-1.27l1.08-2.86h.48c.58.41,1.56.94,2.88.94,1.39,0,2.33-.6,2.33-1.92ZM44.21,11.33c0,1.68.82,2.38,1.97,2.38.58,0,1.25-.29,1.78-.77v-3.6c-.55-.34-1.13-.53-1.73-.53-1.22,0-2.02.86-2.02,2.52Z"/>
      <path class="cls-1" d="M62.23,16.13c-.74.7-2.33,1.37-3.86,1.37-2.81,0-4.3-1.46-4.3-3.53,0-2.62,2.42-3.65,5.33-3.65h1.82v-.26c0-.86-.6-1.61-2.38-1.61-1.08,0-2.38.34-3.19.7h-.48v-2.81c.84-.34,2.42-.79,4.3-.79,4.1,0,5.35,2.16,5.35,5.52v6.05h-1.97l-.62-.98ZM61.23,13.95v-1.39h-2.02c-1.06,0-1.7.31-1.7,1.06,0,.67.55,1.06,1.51,1.06.67,0,1.58-.31,2.21-.72Z"/>
      <path class="cls-1" d="M78.15,1.97h4.78l3.94,14.64v.48h-4.01l-.7-3.41h-3.84l-.79,3.41h-3.7v-.48l4.32-14.64ZM78.98,10.75h2.57l-1.18-5.9-1.39,5.9Z"/>
      <path class="cls-1" d="M93.79,17.55c-1.8,0-4.27-.41-5.59-1.18l1.1-2.71h.48c1.1.5,2.95,1.06,4.18,1.06.72,0,1.54-.19,1.54-.74,0-.6-.94-.74-2.21-1.06-2.69-.67-4.54-1.39-4.54-3.7s1.82-3.67,4.82-3.67c1.66,0,3.91.41,4.94.91v3.07h-.48c-1.32-.6-3.41-1.03-4.56-1.03-.77,0-1.1.22-1.1.6,0,.53.84.74,1.85.96,2.23.5,4.9,1.13,4.9,3.79,0,2.21-1.82,3.7-5.33,3.7Z"/>
      <path class="cls-1" d="M107.23,17.55c-1.8,0-4.27-.41-5.59-1.18l1.1-2.71h.48c1.1.5,2.95,1.06,4.18,1.06.72,0,1.54-.19,1.54-.74,0-.6-.94-.74-2.21-1.06-2.69-.67-4.54-1.39-4.54-3.7s1.82-3.67,4.82-3.67c1.66,0,3.91.41,4.95.91v3.07h-.48c-1.32-.6-3.41-1.03-4.56-1.03-.77,0-1.1.22-1.1.6,0,.53.84.74,1.85.96,2.23.5,4.9,1.13,4.9,3.79,0,2.21-1.82,3.7-5.33,3.7Z"/>
      <path class="cls-1" d="M118.54,12.62c.05,1.08.91,1.9,2.38,1.9,1.06,0,2.35-.38,3.29-1.03h.43l1.27,2.62c-1.18.77-2.83,1.39-4.8,1.39-3.75,0-6.29-2.21-6.29-5.95s2.71-6,5.95-6c3.48,0,5.45,2.47,5.45,6.24v.84h-7.68ZM118.49,10.39h4.32c0-.96-.77-1.94-2.18-1.94s-1.99.98-2.14,1.94Z"/>
      <path class="cls-1" d="M135.02,17.55c-2.86,0-4.44-1.68-4.44-4.06v-4.97h-2.62v-1.2l4.08-3.89h2.21v2.62h4.78v3.07h-4.78v3.98c0,.86.62,1.18,1.32,1.18.53,0,1.32-.19,2.16-.65h.41l1.27,2.69c-1.34.91-3.19,1.22-4.39,1.22Z"/>
      <path class="cls-1" d="M154.49,17.57c-2.28,0-4.68-.77-5.81-1.46l1.25-3.1h.46c.91.6,2.35,1.3,3.84,1.3,1.27,0,2.14-.48,2.14-1.46,0-.82-.67-1.13-1.61-1.44l-1.58-.5c-3.41-1.1-3.87-3.1-3.87-4.56,0-2.76,1.82-4.75,5.62-4.75,1.46,0,3.05.29,4.44.86v3.6h-.43c-1.46-.84-2.86-1.1-3.86-1.1-1.2,0-1.78.41-1.78,1.1,0,.62.48,1.03,1.49,1.37l1.58.53c3.17,1.03,3.96,2.83,3.96,4.66,0,2.83-2.02,4.97-5.83,4.97Z"/>
      <path class="cls-1" d="M169.1,17.55c-2.86,0-4.44-1.68-4.44-4.06v-4.97h-2.62v-1.2l4.08-3.89h2.21v2.62h4.78v3.07h-4.78v3.98c0,.86.62,1.18,1.32,1.18.53,0,1.32-.19,2.16-.65h.41l1.27,2.69c-1.34.91-3.19,1.22-4.39,1.22Z"/>
      <path class="cls-1" d="M184.15,16.13c-.74.7-2.33,1.37-3.86,1.37-2.81,0-4.3-1.46-4.3-3.53,0-2.62,2.42-3.65,5.33-3.65h1.82v-.26c0-.86-.6-1.61-2.38-1.61-1.08,0-2.38.34-3.19.7h-.48v-2.81c.84-.34,2.42-.79,4.3-.79,4.1,0,5.35,2.16,5.35,5.52v6.05h-1.97l-.62-.98ZM183.14,13.95v-1.39h-2.02c-1.06,0-1.7.31-1.7,1.06,0,.67.55,1.06,1.51,1.06.67,0,1.58-.31,2.21-.72Z"/>
      <path class="cls-1" d="M199.56,9.86h-.53c-1.3-.77-2.62-1.13-3.5-1.13-1.51,0-2.52,1.01-2.52,2.78s1.01,2.83,2.47,2.83c.89,0,1.94-.41,2.88-.96h.38l1.37,2.88c-1.39.84-3.07,1.22-4.68,1.22-3.98,0-6.22-2.4-6.22-6.02s2.38-5.93,6.1-5.93c1.51,0,3.07.46,4.25.91v3.41Z"/>
      <path class="cls-1" d="M206.78,0v8.86l2.76-2.81h4.61v.48l-4.1,3.53,4.56,6.55v.48h-4.18l-3.07-4.73-.58.48v4.25h-3.7V0h3.7Z"/>
    </g>
  </g>
</svg>