<?xml version="1.0" encoding="UTF-8"?>
<svg id="_レイヤー_2" data-name="レイヤー 2" xmlns="http://www.w3.org/2000/svg" viewBox="0 0 252.28 21.47">
  <defs>
    <style>
      .cls-1 {
        fill: #fff;
      }
    </style>
  </defs>
  <g id="_レイヤー_1-2" data-name="レイヤー 1">
    <g>
      <g>
        <polygon class="cls-1" points="9.92 7.02 9.85 7 8.48 11.75 5.77 11.75 4.33 7 4.25 7.02 4.54 9.3 4.54 17.01 9.63 17.01 9.63 9.76 9.92 7.02"/>
        <polygon class="cls-1" points="0 0 0 17.01 1.16 17.01 1.16 1.89 5.24 1.89 7.11 8.61 8.98 1.89 13.02 1.89 13.02 17.01 14.17 17.01 14.17 0 0 0"/>
      </g>
      <g>
        <path class="cls-1" d="M212.96,13.95v-1.39h-2.02c-1.06,0-1.7.31-1.7,1.06,0,.67.55,1.06,1.51,1.06.67,0,1.58-.31,2.21-.72Z"/>
        <path class="cls-1" d="M204.09,0v17.01h3.59c-1.23-.59-1.88-1.68-1.88-3.03,0-2.62,2.42-3.65,5.33-3.65h1.82v-.26c0-.86-.6-1.61-2.38-1.61-1.08,0-2.38.34-3.19.7h-.48v-2.81c.84-.34,2.42-.79,4.3-.79,4.1,0,5.35,2.16,5.35,5.52v5.94h1.71V0h-14.17Z"/>
        <path class="cls-1" d="M213.97,16.14c-.34.32-.86.63-1.46.87h2.02l-.55-.87Z"/>
      </g>
      <g>
        <path class="cls-1" d="M57.7,18.28c-1.32,0-2.3-.53-2.88-.94h-.48l-1.08,2.86c1.08.82,3.19,1.27,4.85,1.27,3.32,0,5.2-1.77,5.54-4.46h-3.73c-.27.86-1.09,1.27-2.23,1.27Z"/>
        <path class="cls-1" d="M56.29,10.84c0,1.68.82,2.38,1.97,2.38.58,0,1.25-.29,1.78-.77v-3.6c-.55-.34-1.13-.53-1.73-.53-1.22,0-2.02.86-2.02,2.52Z"/>
        <path class="cls-1" d="M51.02,0v17.01h8.9c.06-.19.1-.41.1-.65v-1.06c-.38.43-1.15.94-2.47.94-2.57,0-5.06-1.73-5.06-5.4s2.42-5.78,5.3-5.78c1.46,0,2.69.58,3.72,1.32l.65-.82h1.56v10.51c0,.33-.03.63-.07.94h1.54V0h-14.17Z"/>
      </g>
      <g>
        <polygon class="cls-1" points="90.1 13.6 89.31 17.01 94.63 17.01 93.94 13.6 90.1 13.6"/>
        <polygon class="cls-1" points="90.77 10.67 93.34 10.67 92.16 4.77 90.77 10.67"/>
        <polygon class="cls-1" points="85.04 0 85.04 17.01 85.61 17.01 85.61 16.53 89.93 1.89 94.71 1.89 98.64 16.53 98.64 17.01 99.21 17.01 99.21 0 85.04 0"/>
      </g>
      <g>
        <path class="cls-1" d="M143.26,8.45c-1.42,0-1.99.98-2.14,1.94h4.32c0-.96-.77-1.94-2.18-1.94Z"/>
        <path class="cls-1" d="M136.06,0v17.01h4.88c-2.16-.85-3.5-2.75-3.5-5.46,0-3.86,2.71-6,5.95-6,3.48,0,5.45,2.47,5.45,6.24v.84h-7.68c.05,1.08.91,1.9,2.38,1.9,1.06,0,2.35-.38,3.29-1.03h.43l1.27,2.62c-.53.34-1.15.65-1.85.9h3.55V0h-14.17Z"/>
      </g>
      <path class="cls-1" d="M153.07,0v17.01h6.1c-1.37-.66-2.12-1.94-2.12-3.56v-4.97h-2.62v-1.2l4.08-3.89h2.21v2.62h4.78v3.07h-4.78v3.98c0,.86.62,1.18,1.32,1.18.53,0,1.32-.19,2.16-.65h.41l1.27,2.69c-.46.31-.97.55-1.5.73h2.86V0h-14.17Z"/>
      <path class="cls-1" d="M187.09,0v17.01h6.1c-1.37-.66-2.12-1.94-2.12-3.56v-4.97h-2.62v-1.2l4.08-3.89h2.21v2.62h4.78v3.07h-4.78v3.98c0,.86.62,1.18,1.32,1.18.53,0,1.32-.19,2.16-.65h.41l1.27,2.69c-.46.31-.97.55-1.5.73h2.86V0h-14.17Z"/>
      <path class="cls-1" d="M170.08,0v17.01h4.66c-1.41-.28-2.67-.76-3.39-1.21l1.25-3.1h.46c.91.6,2.35,1.3,3.84,1.3,1.27,0,2.14-.48,2.14-1.46,0-.82-.67-1.13-1.61-1.44l-1.58-.5c-3.41-1.1-3.87-3.1-3.87-4.56,0-2.76,1.82-4.75,5.62-4.75,1.46,0,3.05.29,4.44.86v3.6h-.43c-1.46-.84-2.86-1.1-3.86-1.1-1.2,0-1.78.41-1.78,1.1,0,.62.48,1.03,1.49,1.37l1.58.53c3.17,1.03,3.96,2.83,3.96,4.66,0,2.28-1.32,4.08-3.82,4.71h5.09V0h-14.17Z"/>
      <path class="cls-1" d="M221.1,0v17.01h5.07c-2.22-.88-3.43-2.87-3.43-5.53,0-3.72,2.38-5.93,6.1-5.93,1.51,0,3.07.46,4.25.91v3.41h-.53c-1.3-.77-2.62-1.13-3.5-1.13-1.51,0-2.52,1.01-2.52,2.78s1.01,2.83,2.47,2.83c.89,0,1.94-.41,2.88-.96h.38l1.37,2.88c-.52.31-1.08.54-1.65.73h3.29V0h-14.17Z"/>
      <g>
        <rect class="cls-1" x="238.11" width="1.6" height="17.01"/>
        <polygon class="cls-1" points="243.41 12.76 243.41 17.01 247.06 17.01 243.99 12.28 243.41 12.76"/>
        <polygon class="cls-1" points="243.41 0 243.41 8.77 246.17 5.97 250.78 5.97 250.78 6.45 246.67 9.98 251.24 16.53 251.24 17.01 252.28 17.01 252.28 0 243.41 0"/>
      </g>
      <g>
        <path class="cls-1" d="M25.87,13.95v-1.39h-2.02c-1.06,0-1.7.31-1.7,1.06,0,.67.55,1.06,1.51,1.06.67,0,1.58-.31,2.21-.72Z"/>
        <path class="cls-1" d="M17.01,0v17.01h3.59c-1.23-.59-1.88-1.68-1.88-3.03,0-2.62,2.42-3.65,5.33-3.65h1.82v-.26c0-.86-.6-1.61-2.38-1.61-1.08,0-2.38.34-3.19.7h-.48v-2.81c.84-.34,2.42-.79,4.3-.79,4.1,0,5.35,2.16,5.35,5.52v5.94h1.71V0h-14.17Z"/>
        <path class="cls-1" d="M26.88,16.14c-.34.32-.86.63-1.46.87h2.02l-.55-.87Z"/>
      </g>
      <g>
        <path class="cls-1" d="M34.02,0v17.01h1.69V6.46h1.73l.58.91c.77-.6,2.47-1.42,4.1-1.42,3.55,0,4.39,2.45,4.39,5.14v5.91h1.69V0h-14.17Z"/>
        <path class="cls-1" d="M41.49,9.27c-.82,0-1.58.31-2.09.53v7.21h3.41v-6.03c0-1.15-.24-1.7-1.32-1.7Z"/>
      </g>
      <g>
        <path class="cls-1" d="M76.89,13.95v-1.39h-2.02c-1.06,0-1.7.31-1.7,1.06,0,.67.55,1.06,1.51,1.06.67,0,1.58-.31,2.21-.72Z"/>
        <path class="cls-1" d="M68.03,0v17.01h3.59c-1.23-.59-1.88-1.68-1.88-3.03,0-2.62,2.42-3.65,5.33-3.65h1.82v-.26c0-.86-.6-1.61-2.38-1.61-1.08,0-2.38.34-3.19.7h-.48v-2.81c.84-.34,2.42-.79,4.3-.79,4.1,0,5.35,2.16,5.35,5.52v5.94h1.71V0h-14.17Z"/>
        <path class="cls-1" d="M77.9,16.14c-.34.32-.86.63-1.46.87h2.02l-.55-.87Z"/>
      </g>
      <path class="cls-1" d="M102.05,0v17.01h3.4c-.68-.18-1.3-.41-1.77-.68l1.1-2.71h.48c1.1.5,2.95,1.06,4.18,1.06.72,0,1.54-.19,1.54-.74,0-.6-.94-.74-2.21-1.06-2.69-.67-4.54-1.39-4.54-3.7s1.82-3.67,4.82-3.67c1.66,0,3.91.41,4.94.91v3.07h-.48c-1.32-.6-3.41-1.03-4.56-1.03-.77,0-1.1.22-1.1.6,0,.53.84.74,1.85.96,2.23.5,4.9,1.13,4.9,3.79,0,1.46-.81,2.59-2.36,3.2h3.99V0h-14.17Z"/>
      <path class="cls-1" d="M119.06,0v17.01h3.4c-.68-.18-1.3-.41-1.77-.68l1.1-2.71h.48c1.1.5,2.95,1.06,4.18,1.06.72,0,1.54-.19,1.54-.74,0-.6-.94-.74-2.21-1.06-2.69-.67-4.54-1.39-4.54-3.7s1.82-3.67,4.82-3.67c1.66,0,3.91.41,4.94.91v3.07h-.48c-1.32-.6-3.41-1.03-4.56-1.03-.77,0-1.1.22-1.1.6,0,.53.84.74,1.85.96,2.23.5,4.9,1.13,4.9,3.79,0,1.46-.81,2.59-2.36,3.2h3.99V0h-14.17Z"/>
    </g>
  </g>
</svg>